<svg xmlns="http://www.w3.org/2000/svg"  viewBox="0 0 40 40" width="40px" height="40px"><path fill="#fff" d="M2.5 1.5H31.5V38.5H2.5z"/><path fill="#4788c7" d="M31,2v36H3V2H31 M32,1H2v38h30V1L32,1z"/><path fill="#98ccfd" d="M13 8A3 3 0 1 0 13 14 3 3 0 1 0 13 8zM13 15c-2.761 0-5 2.239-5 5h10C18 17.239 15.761 15 13 15z"/><path fill="#fff" d="M32 10.3L30 9 30 35 32 33.7z"/><path fill="#98ccfd" d="M31.5 24.5L24.5 24.5 24.5 19.5 31.5 19.5 31.5 15.113 39.247 22 31.5 28.887z"/><path fill="#4788c7" d="M32 16.227L38.495 22 32 27.773V25v-1h-1-6v-4h6 1v-1V16.227M31 14v5h-7v6h7v5l9-8L31 14 31 14zM31.5 37L31.5 37c-.275 0-.5-.225-.5-.5v-4c0-.275.225-.5.5-.5l0 0c.275 0 .5.225.5.5v4C32 36.775 31.775 37 31.5 37zM31.5 7L31.5 7C31.775 7 32 7.225 32 7.5v4c0 .275-.225.5-.5.5l0 0c-.275 0-.5-.225-.5-.5v-4C31 7.225 31.225 7 31.5 7zM25.5 12h-5c-.275 0-.5-.225-.5-.5v0c0-.275.225-.5.5-.5h5c.275 0 .5.225.5.5v0C26 11.775 25.775 12 25.5 12zM25.5 16h-5c-.275 0-.5-.225-.5-.5v0c0-.275.225-.5.5-.5h5c.275 0 .5.225.5.5v0C26 15.775 25.775 16 25.5 16zM21.5 20h-1c-.275 0-.5-.225-.5-.5l0 0c0-.275.225-.5.5-.5h1c.275 0 .5.225.5.5l0 0C22 19.775 21.775 20 21.5 20zM21.5 24h-13C8.225 24 8 23.775 8 23.5l0 0C8 23.225 8.225 23 8.5 23h13c.275 0 .5.225.5.5l0 0C22 23.775 21.775 24 21.5 24zM25.5 28h-17C8.225 28 8 27.775 8 27.5l0 0C8 27.225 8.225 27 8.5 27h17c.275 0 .5.225.5.5l0 0C26 27.775 25.775 28 25.5 28zM8.5 31h17c.275 0 .5.225.5.5l0 0c0 .275-.225.5-.5.5h-17C8.225 32 8 31.775 8 31.5l0 0C8 31.225 8.225 31 8.5 31z"/></svg>