<svg xmlns="http://www.w3.org/2000/svg"  viewBox="0 0 40 40" width="40px" height="40px"><path fill="#dff0fe" d="M7.5 35.5L7.5 3.5 11.5 3.5 11.5 1.5 28.5 1.5 28.5 3.5 32.5 3.5 32.5 35.5z"/><path fill="#4788c7" d="M28,2v1v1h1h3v31H8V4h3h1V3V2H28 M29,1H11v2H7v33h26V3h-4V1L29,1z"/><path fill="#98ccfd" d="M12 10h4V8h-4V10zM18 10h4V8h-4V10zM24 8v2h4V8H24zM12 14h4v-2h-4V14zM18 14h4v-2h-4V14zM24 12v2h4v-2H24zM12 18h4v-2h-4V18zM18 18h4v-2h-4V18zM24 16v2h4v-2H24zM12 22h4v-2h-4V22zM18 22h4v-2h-4V22zM24 20v2h4v-2H24zM12 26h3v-2h-3V26zM12 30h3v-2h-3V30z"/><path fill="#dff0fe" d="M14,35v1h7l-0.443-1H14z M32,21v4.231h1V21H32z"/><path fill="#fff" d="M37.415,39.5c-0.207-0.582-0.763-1-1.415-1s-1.208,0.418-1.415,1h-12.17c-0.207-0.582-0.763-1-1.415-1s-1.208,0.418-1.415,1H17.5v-15h22v15H37.415z"/><path fill="#4788c7" d="M39,25v14h-1.268c-0.346-0.597-0.993-1-1.732-1s-1.385,0.403-1.732,1H22.732c-0.346-0.597-0.993-1-1.732-1s-1.385,0.403-1.732,1H18V25H39 M40,24H17v16h3c0-0.552,0.448-1,1-1s1,0.448,1,1h13c0-0.552,0.448-1,1-1s1,0.448,1,1h3V24L40,24z"/><path fill="#98ccfd" d="M32.5 27A2.5 2.5 0 1 0 32.5 32 2.5 2.5 0 1 0 32.5 27zM32.5 33c-1.933 0-3.5 1.612-3.5 3.6 0 0 0 .263 0 .4h7c0-.137 0-.4 0-.4C36 34.612 34.433 33 32.5 33z"/><path fill="none" stroke="#4788c7" stroke-linecap="round" stroke-miterlimit="10" d="M21.5 30.5L26.5 30.5M21.5 33.5L26.5 33.5"/><path fill="#4788c7" d="M32.5 18L32.5 18c.275 0 .5.225.5.5v3c0 .275-.225.5-.5.5l0 0c-.275 0-.5-.225-.5-.5v-3C32 18.225 32.225 18 32.5 18zM10.5 35h4c.275 0 .5.225.5.5l0 0c0 .275-.225.5-.5.5h-4c-.275 0-.5-.225-.5-.5l0 0C10 35.225 10.225 35 10.5 35z"/></svg>