<svg xmlns="http://www.w3.org/2000/svg"  viewBox="0 0 40 40" width="40px" height="40px"><path fill="#dff0fe" d="M29,22.5c-0.827,0-1.5-0.673-1.5-1.5v-7.319L20.436,7.5H14c-0.827,0-1.5-0.673-1.5-1.5 s0.673-1.5,1.5-1.5h7c0.363,0,0.714,0.132,0.988,0.371l8,7C30.313,12.156,30.5,12.567,30.5,13v6.5H36c0.827,0,1.5,0.673,1.5,1.5 s-0.673,1.5-1.5,1.5H29z"/><path fill="#4788c7" d="M21 5c.242 0 .477.088.659.247l8 7C29.875 12.437 30 12.712 30 13v6 1h1 5c.551 0 1 .449 1 1s-.449 1-1 1h-7c-.551 0-1-.449-1-1v-7.092-.454l-.342-.299-6.752-5.908L20.624 7h-.376H14c-.551 0-1-.449-1-1s.449-1 1-1H21M21 4h-7c-1.104 0-2 .896-2 2s.896 2 2 2h6.248L27 13.908V21c0 1.104.896 2 2 2h7c1.104 0 2-.896 2-2s-.896-2-2-2h-5v-6c0-.577-.249-1.125-.683-1.505l-8-7C21.952 4.176 21.484 4 21 4L21 4zM3 16H17V17H3z"/><path fill="#4788c7" d="M3 12H22V13H3zM3 20H19V21H3z"/><path fill="#dff0fe" d="M34 1.5A3.5 3.5 0 1 0 34 8.5A3.5 3.5 0 1 0 34 1.5Z"/><path fill="#4788c7" d="M34,2c1.654,0,3,1.346,3,3s-1.346,3-3,3s-3-1.346-3-3S32.346,2,34,2 M34,1c-2.209,0-4,1.791-4,4 c0,2.208,1.791,4,4,4c2.209,0,4-1.792,4-4C38,2.791,36.209,1,34,1L34,1z"/><path fill="#98ccfd" d="M19.04,21.04c-0.985,0-1.889-0.451-2.479-1.238c-0.325-0.433-0.315-1.075-0.249-1.538 c0.229-1.61,1.397-3.452,2.346-4.163l7.543-5.622l3.733,3.331C30.299,12.113,30.5,12.543,30.5,13v0.214l-9.606,7.208 C20.354,20.826,19.714,21.04,19.04,21.04z"/><path fill="#4788c7" d="M26.173,9.123l3.455,3.081c0.228,0.19,0.362,0.466,0.372,0.761l-9.406,7.057 c-0.451,0.339-0.989,0.518-1.553,0.518c-0.826,0-1.584-0.378-2.079-1.038c-0.303-0.403-0.23-1.336,0.186-2.378 c0.423-1.062,1.168-2.14,1.81-2.621L26.173,9.123 M26.229,7.833L18.358,13.7c-1.589,1.191-3.389,4.816-2.197,6.401 c0.707,0.941,1.785,1.438,2.879,1.438c0.751,0,1.508-0.233,2.154-0.718L31,13.464V13c0-0.604-0.268-1.177-0.732-1.564L26.229,7.833 L26.229,7.833z"/><path fill="#dff0fe" d="M17.036,38.5c-0.443,0-0.865-0.191-1.155-0.524c-0.271-0.309-0.404-0.705-0.378-1.114 c0.027-0.409,0.213-0.783,0.521-1.053l7.953-7.95c0.256-0.223,0.615-0.358,0.986-0.358c0.443,0,0.864,0.191,1.155,0.525 c0.271,0.309,0.404,0.705,0.378,1.114c-0.027,0.409-0.213,0.783-0.521,1.053l-7.953,7.951C17.768,38.365,17.408,38.5,17.036,38.5z"/><path fill="#4788c7" d="M24.964,28L24.964,28c0.298,0,0.582,0.129,0.78,0.356c0.376,0.429,0.332,1.085-0.098,1.461 l-0.025,0.022l-0.023,0.023l-7.901,7.9C17.511,37.916,17.278,38,17.036,38c-0.299,0-0.583-0.129-0.78-0.354 c-0.376-0.429-0.332-1.085,0.098-1.461l0.025-0.022l0.023-0.023l7.901-7.9C24.489,28.085,24.723,28,24.964,28 M24.964,27 c-0.476,0-0.954,0.166-1.341,0.505l-7.928,7.927c-0.846,0.741-0.932,2.026-0.191,2.872C15.906,38.765,16.47,39,17.036,39 c0.476,0,0.954-0.166,1.34-0.504l7.928-7.927c0.846-0.741,0.932-2.026,0.191-2.872C26.094,27.235,25.531,27,24.964,27L24.964,27z"/><path fill="#dff0fe" d="M14,30.5c-0.827,0-1.5-0.673-1.5-1.5s0.673-1.5,1.5-1.5h7.62l-5.406-7.503l-0.081-0.081 c-0.503-0.664-0.711-1.479-0.595-2.297c0.117-0.819,0.546-1.543,1.207-2.039l1.469-1.135l7.999,13.677 C26.408,28.405,26.5,28.698,26.5,29c0,0.827-0.673,1.5-1.5,1.5H14z"/><path fill="#4788c7" d="M18.07,15.187l7.711,13.185l0.019,0.033l0.022,0.031C25.938,28.605,26,28.8,26,29 c0,0.551-0.449,1-1,1H14c-0.551,0-1-0.449-1-1c0-0.551,0.449-1,1-1h6.643h1.953l-1.141-1.585l-4.807-6.673l-0.023-0.033 l-0.026-0.031c-0.031-0.037-0.064-0.071-0.101-0.107c-0.395-0.546-0.559-1.213-0.464-1.883c0.098-0.687,0.457-1.294,1.024-1.718 L18.07,15.187 M18.358,13.7l-1.913,1.479c-1.589,1.191-1.91,3.447-0.719,5.032c0.033,0.044,0.075,0.074,0.11,0.115L20.643,27H14 c-1.1,0-2,0.9-2,2c0,1.1,0.9,2,2,2h11c1.1,0,2-0.9,2-2c0-0.42-0.133-0.809-0.356-1.132L18.358,13.7L18.358,13.7z"/><g><path fill="#b6dcfe" d="M20.899,26.5l-4.686-6.503l-0.081-0.081c-0.503-0.664-0.711-1.479-0.595-2.297 c0.117-0.819,0.546-1.543,1.207-2.039l1.469-1.135L25.269,26.5H20.899z"/><path fill="#4788c7" d="M18.07,15.187L24.397,26h-3.241l-4.508-6.258l-0.024-0.033l-0.026-0.031 c-0.031-0.036-0.063-0.07-0.101-0.106c-0.395-0.546-0.56-1.213-0.464-1.883c0.098-0.687,0.457-1.294,1.024-1.718L18.07,15.187 M18.358,13.7l-1.913,1.479c-1.589,1.191-1.91,3.447-0.719,5.032c0.033,0.044,0.075,0.074,0.11,0.115L20.643,27h5.497L18.358,13.7 L18.358,13.7z"/></g><path fill="#4788c7" d="M3.5 13h-1C2.225 13 2 12.775 2 12.5v0C2 12.225 2.225 12 2.5 12h1C3.775 12 4 12.225 4 12.5v0C4 12.775 3.775 13 3.5 13zM4.5 17h-2C2.225 17 2 16.775 2 16.5l0 0C2 16.225 2.225 16 2.5 16h2C4.775 16 5 16.225 5 16.5l0 0C5 16.775 4.775 17 4.5 17zM3.5 21h-1C2.225 21 2 20.775 2 20.5l0 0C2 20.225 2.225 20 2.5 20h1C3.775 20 4 20.225 4 20.5l0 0C4 20.775 3.775 21 3.5 21z"/></svg>