<svg xmlns="http://www.w3.org/2000/svg"  viewBox="0 0 40 40" width="40px" height="40px"><path fill="#4788c7" d="M24,2c0.551,0,1,0.449,1,1v3H14V3c0-0.551,0.449-1,1-1H24 M24,1h-9c-1.105,0-2,0.895-2,2v4h13V3C26,1.895,25.105,1,24,1L24,1z"/><path fill="#dff0fe" d="M1.5,31.5v-17h36v13.568c0,1.892-1.539,3.432-3.432,3.432H1.5z"/><path fill="#4788c7" d="M37,15v13.068C37,29.685,35.685,31,34.068,31H2V15H37 M38,14H1v18h33.068C36.24,32,38,30.24,38,28.068V14L38,14z"/><path fill="#dff0fe" d="M5,20.5c-1.93,0-3.5-1.57-3.5-3.5V4.5h36V17c0,1.93-1.57,3.5-3.5,3.5H5z"/><path fill="#4788c7" d="M37,5v12c0,1.654-1.346,3-3,3H5c-1.654,0-3-1.346-3-3V5H37 M38,4H1v13c0,2.209,1.791,4,4,4h29c2.209,0,4-1.791,4-4V4L38,4z"/><path fill="#4788c7" d="M19.5 15A1.5 1.5 0 1 0 19.5 18 1.5 1.5 0 1 0 19.5 15zM27 5h-3V4.5C24 3.672 24.672 3 25.5 3l0 0C26.328 3 27 3.672 27 4.5V5zM15 5h-3V4.5C12 3.672 12.672 3 13.5 3l0 0C14.328 3 15 3.672 15 4.5V5z"/><path fill="#98ccfd" d="M23.765,39.5c-0.338,0-0.655-0.132-0.895-0.371c-0.492-0.493-0.492-1.295,0-1.789l6.901-6.58l1.519,1.419l-6.639,6.957C24.42,39.368,24.103,39.5,23.765,39.5z"/><path fill="#4788c7" d="M29.775,31.449l0.804,0.752l-6.274,6.575C24.161,38.92,23.969,39,23.765,39c-0.204,0-0.396-0.08-0.541-0.224c-0.298-0.298-0.298-0.783-0.017-1.065L29.775,31.449 M29.769,30.074l-7.252,6.914c-0.689,0.689-0.689,1.807,0,2.496C22.861,39.828,23.313,40,23.765,40s0.903-0.172,1.248-0.517L32,32.161L29.769,30.074L29.769,30.074z"/><g><path fill="#b6dcfe" stroke="#4788c7" stroke-miterlimit="10" d="M33 22.5A6.5 6.5 0 1 0 33 35.5A6.5 6.5 0 1 0 33 22.5Z"/><path fill="#b6dcfe" stroke="#4788c7" stroke-miterlimit="10" d="M33,22.5c-3.59,0-6.5,2.91-6.5,6.5s2.91,6.5,6.5,6.5s6.5-2.909,6.5-6.5C39.5,25.41,36.59,22.5,33,22.5L33,22.5z"/></g></svg>