<svg xmlns="http://www.w3.org/2000/svg"  viewBox="0 0 40 40" width="40px" height="40px"><path fill="#b6dcfe" d="M19.693,11.014l1.195-1.196C21.739,8.968,22.87,8.5,24.071,8.5H28l10.5-0.953V20.5h-3.667 l-3.771,2.829L19.693,11.014z"/><path fill="#4788c7" d="M38,8.095V20h-3h-0.333L34.4,20.2l-3.278,2.458L20.386,11.028l0.856-0.856 C21.998,9.416,23.003,9,24.071,9H28h0.045l0.045-0.004L38,8.095 M39,7L28,8h-3.929c-1.326,0-2.598,0.527-3.536,1.464L19,11l12,13 l4-3h4V7L39,7z"/><path fill="#dff0fe" d="M21.5,34.5c-0.883,0-1.669-0.598-1.913-1.454l-0.216-0.759l-0.248,0.217L8.222,20.5H1.5V7.547 l10.455,0.951L16.834,8.5c1.238,0,2.435,0.519,3.283,1.422l7.601,8.108l3.58,3.741l0.063,0.036c0.703,0.403,1.14,1.147,1.14,1.943 c0,1.198-0.942,2.181-2.145,2.237l-0.635,0.03l0.179,0.61C29.968,26.863,30,27.061,30,27.25c0,1.241-1.01,2.25-2.25,2.25 c-0.197,0-0.401-0.034-0.644-0.107l-0.748-0.226l0.108,0.774c0.02,0.135,0.033,0.22,0.033,0.309c0,1.241-1.01,2.25-2.25,2.25 c-0.048,0-0.095-0.008-0.141-0.014l-0.561-0.063l-0.087,0.453C23.282,33.817,22.457,34.5,21.5,34.5z"/><path fill="#4788c7" d="M2,8.095l9.909,0.901L11.955,9H12h4.834c1.101,0,2.165,0.461,2.918,1.264l7.609,8.116l3.526,3.684 l0.1,0.104l0.125,0.072C31.668,22.559,32,23.124,32,23.75c0,0.93-0.733,1.694-1.668,1.738l-1.267,0.06l0.354,1.218 c0.055,0.19,0.081,0.344,0.081,0.484c0,0.965-0.785,1.75-1.75,1.75c-0.146,0-0.305-0.027-0.5-0.086l-1.493-0.449l0.214,1.544 l0.008,0.057C25.988,30.127,26,30.187,26,30.25c0,0.965-0.785,1.75-1.745,1.75c-0.026-0.001-0.052-0.006-0.078-0.01l-0.116-0.015 l-0.918-0.1l-0.173,0.907C22.836,33.488,22.217,34,21.5,34c-0.66,0-1.249-0.449-1.432-1.092l-0.458-1.506L19.16,31.8L8.74,20.328 L8.443,20H8H2V8.095 M1,7v14h7l11.083,12.203l0.023-0.021C19.405,34.229,20.358,35,21.5,35c1.22,0,2.232-0.874,2.453-2.03 C24.052,32.981,24.148,33,24.25,33c1.519,0,2.75-1.231,2.75-2.75c0-0.13-0.021-0.254-0.038-0.378 C27.213,29.947,27.474,30,27.75,30c1.519,0,2.75-1.231,2.75-2.75c0-0.267-0.05-0.519-0.121-0.763 C31.837,26.418,33,25.224,33,23.75c0-1.022-0.564-1.903-1.391-2.377l-3.526-3.685L20.482,9.58C19.536,8.572,18.216,8,16.834,8H12 L1,7L1,7z"/><path fill="#b6dcfe" d="M17.618,18.791c-0.53,0-1.036-0.089-1.425-0.252c-0.955-0.399-1.517-0.904-1.626-1.46 c-0.128-0.648,0.356-1.296,0.786-1.725l5.535-5.536C21.739,8.968,22.87,8.5,24.071,8.5H27.5v6H26c-0.887,0-2.1,0.465-2.76,1.059 l-1.967,1.77C19.857,18.601,18.376,18.791,17.618,18.791z"/><path fill="#4788c7" d="M27,9v5h-1c-1.012,0-2.342,0.51-3.094,1.187l-1.967,1.769c-1.291,1.161-2.634,1.335-3.32,1.335 c-0.628,0-1.042-0.134-1.232-0.214c-0.771-0.323-1.255-0.722-1.328-1.095c-0.065-0.332,0.171-0.797,0.649-1.275l5.536-5.536 C21.998,9.416,23.003,9,24.071,9H27 M28,8h-3.929c-1.326,0-2.598,0.527-3.536,1.464L15,15c-1.417,1.417-1.389,3,1,4 c0.421,0.176,0.982,0.291,1.619,0.291c1.202,0,2.676-0.41,3.989-1.591l1.967-1.769C24.143,15.419,25.235,15,26,15h2V8L28,8z"/><path fill="#b6dcfe" d="M31.667 14L28 15 27 15 27 14 25 14 25 9 31.667 9zM18.5 34.5c-.949 0-1.773-.674-1.96-1.603l-.081-.402H16.05l-.1.008C14.621 32.5 13.5 31.378 13.5 30v-.5H13c-1.379 0-2.5-1.122-2.5-2.5v-.5H10c-1.379 0-2.5-1.122-2.5-2.5s1.121-2.5 2.5-2.5 2.5 1.122 2.5 2.5v.5H13c1.379 0 2.5 1.122 2.5 2.5v.5H16c1.379 0 2.5 1.122 2.5 2.5v.41l.396.13c.929.187 1.604 1.011 1.604 1.96C20.5 33.603 19.603 34.5 18.5 34.5z"/><path fill="#4788c7" d="M10,22c1.103,0,2,0.897,2,2v1h1c1.103,0,2,0.897,2,2v1h1c1.085,0,1.97,0.868,1.999,1.946 l-0.003,0.022l-0.001,0.065l-0.015,0.834l0.818,0.164C19.495,31.17,20,31.788,20,32.5c0,0.827-0.673,1.5-1.5,1.5 c-0.712,0-1.33-0.505-1.47-1.202l-0.164-0.818l-0.834,0.015c-0.027,0-0.053,0.002-0.079,0.004C14.872,31.974,14,31.087,14,30v-1 h-1c-1.103,0-2-0.897-2-2v-1h-1c-1.103,0-2-0.897-2-2S8.897,22,10,22 M10,21c-1.657,0-3,1.343-3,3s1.343,3,3,3 c0,1.657,1.343,3,3,3c0,1.657,1.343,3,3,3c0.017,0,0.033-0.005,0.05-0.005C16.28,34.138,17.289,35,18.5,35 c1.381,0,2.5-1.119,2.5-2.5c0-1.211-0.862-2.22-2.005-2.45C18.995,30.033,19,30.017,19,30c0-1.657-1.343-3-3-3 c0-1.657-1.343-3-3-3C13,22.343,11.657,21,10,21L10,21z"/><path fill="none" stroke="#4788c7" stroke-linecap="round" stroke-miterlimit="10" d="M29 25L30.171 26.171M25.5 28.5L26.671 29.671M23 32L23.737 32.737"/><g><path fill="#4788c7" d="M26.5,14h1c0.275,0,0.5,0.225,0.5,0.5v0c0,0.275-0.225,0.5-0.5,0.5h-1c-0.275,0-0.5-0.225-0.5-0.5v0 C26,14.225,26.225,14,26.5,14z"/></g></svg>